<svg width="62" height="19" viewBox="0 0 62 19" fill="none" xmlns="http://www.w3.org/2000/svg">
<path d="M12.6705 16.752C12.0305 17.184 11.3345 17.52 10.5825 17.76C9.84647 18 9.06247 18.12 8.23047 18.12C7.01447 18.12 5.90247 17.872 4.89447 17.376C3.90247 16.88 3.04647 16.232 2.32647 15.432C1.60647 14.632 1.04647 13.712 0.646469 12.672C0.262469 11.632 0.0704688 10.568 0.0704688 9.48C0.0704688 8.344 0.278469 7.256 0.694469 6.216C1.11047 5.176 1.67847 4.256 2.39847 3.456C3.13447 2.656 3.99847 2.024 4.99047 1.56C5.99847 1.08 7.09447 0.839999 8.27847 0.839999C9.49447 0.839999 10.5985 1.096 11.5905 1.608C12.5985 2.104 13.4545 2.76 14.1585 3.576C14.8785 4.392 15.4305 5.32 15.8145 6.36C16.2145 7.384 16.4145 8.432 16.4145 9.504C16.4145 10.64 16.2145 11.72 15.8145 12.744C15.4145 13.752 14.8545 14.656 14.1345 15.456L16.3665 18H13.7745L12.6705 16.752ZM8.25447 15.696C8.78247 15.696 9.27847 15.624 9.74247 15.48C10.2065 15.336 10.6305 15.136 11.0145 14.88L8.59047 12.072H11.1825L12.4065 13.488C12.8225 12.928 13.1345 12.304 13.3425 11.616C13.5505 10.912 13.6545 10.2 13.6545 9.48C13.6545 8.664 13.5265 7.888 13.2705 7.152C13.0145 6.4 12.6465 5.736 12.1665 5.16C11.7025 4.584 11.1345 4.128 10.4625 3.792C9.80647 3.44 9.07047 3.264 8.25447 3.264C7.39047 3.264 6.62247 3.448 5.95047 3.816C5.27847 4.168 4.71047 4.64 4.24647 5.232C3.78247 5.808 3.42247 6.472 3.16647 7.224C2.92647 7.96 2.80647 8.712 2.80647 9.48C2.80647 10.28 2.93447 11.056 3.19047 11.808C3.44647 12.56 3.80647 13.224 4.27047 13.8C4.75047 14.376 5.32647 14.84 5.99847 15.192C6.67047 15.528 7.42247 15.696 8.25447 15.696ZM24.5657 1.032H27.1097L29.1977 6.816L31.3097 1.032H33.8297L30.9257 8.616L33.4697 14.88L38.7737 0.959999H41.7257L34.6937 18H32.3897L29.2217 10.368L26.0297 18H23.7257L16.6937 0.959999H19.6217L24.9497 14.88L27.4937 8.616L24.5657 1.032ZM43.7364 18V0.983999H46.4244V9.744L54.4404 0.959999H57.4164L50.6964 8.496L57.8004 18H54.8004L49.0404 10.152L46.4244 12.864V18H43.7364ZM59.1242 18V14.928H61.3082V18H59.1242Z" fill="#2C2021"/>
</svg>
